<svg width="28" height="28" viewBox="0 0 28 28" fill="none" xmlns="http://www.w3.org/2000/svg">
<g id="Iconly/Light/Setting">
<g id="Setting">
<path id="Path_33946" fill-rule="evenodd" clip-rule="evenodd" d="M24.2745 8.89412L23.5484 7.63401C22.934 6.56777 21.5726 6.19994 20.5049 6.81174V6.81174C19.9966 7.11113 19.3902 7.19608 18.8192 7.04783C18.2483 6.89959 17.7598 6.53034 17.4614 6.0215C17.2694 5.69807 17.1663 5.32969 17.1624 4.95361V4.95361C17.1797 4.35066 16.9522 3.76637 16.5318 3.33385C16.1113 2.90132 15.5337 2.65741 14.9305 2.65765H13.4675C12.8765 2.65765 12.3099 2.89313 11.8931 3.312C11.4762 3.73087 11.2435 4.29859 11.2463 4.88954V4.88954C11.2288 6.10964 10.2346 7.08951 9.01441 7.08939C8.63833 7.08548 8.26995 6.98233 7.94652 6.79038V6.79038C6.87882 6.17858 5.51738 6.54641 4.90304 7.61265L4.12349 8.89412C3.50989 9.95903 3.87271 11.3196 4.93508 11.9376V11.9376C5.62563 12.3363 6.05103 13.0731 6.05103 13.8705C6.05103 14.6679 5.62563 15.4047 4.93508 15.8033V15.8033C3.87406 16.4172 3.51085 17.7745 4.12349 18.8361V18.8361L4.86033 20.1069C5.14817 20.6263 5.63112 21.0096 6.20231 21.1719C6.77349 21.3343 7.38583 21.2623 7.90381 20.9719V20.9719C8.41301 20.6748 9.0198 20.5934 9.58931 20.7458C10.1588 20.8982 10.6439 21.2718 10.9366 21.7835C11.1286 22.1069 11.2317 22.4753 11.2356 22.8514V22.8514C11.2356 24.084 12.2349 25.0833 13.4675 25.0833H14.9305C16.159 25.0833 17.1565 24.0905 17.1624 22.8621V22.8621C17.1595 22.2693 17.3938 21.6999 17.8129 21.2807C18.2321 20.8616 18.8015 20.6273 19.3943 20.6302C19.7695 20.6402 20.1363 20.743 20.4622 20.9292V20.9292C21.5271 21.5428 22.8876 21.18 23.5056 20.1176V20.1176L24.2745 18.8361C24.5721 18.3253 24.6538 17.7169 24.5015 17.1457C24.3491 16.5744 23.9754 16.0875 23.4629 15.7927V15.7927C22.9505 15.4979 22.5767 15.0109 22.4244 14.4397C22.272 13.8684 22.3537 13.26 22.6513 12.7492C22.8449 12.4113 23.125 12.1311 23.4629 11.9376V11.9376C24.5189 11.3199 24.8809 9.96731 24.2745 8.90479V8.90479V8.89412Z" stroke="white" stroke-width="1.5" stroke-linecap="round" stroke-linejoin="round"/>
<ellipse id="Ellipse_737" cx="14.2043" cy="13.8706" rx="3.07551" ry="3.07551" stroke="white" stroke-width="1.5" stroke-linecap="round" stroke-linejoin="round"/>
</g>
</g>
</svg>
