<svg width="20" height="21" viewBox="0 0 20 21" fill="none" xmlns="http://www.w3.org/2000/svg">
<g id="Icon/calendar">
<path id="Vector" d="M13.9582 3.24757V1.94757C13.9582 1.6059 13.6749 1.32257 13.3332 1.32257C12.9915 1.32257 12.7082 1.6059 12.7082 1.94757V3.19757H7.29153V1.94757C7.29153 1.6059 7.0082 1.32257 6.66653 1.32257C6.32487 1.32257 6.04153 1.6059 6.04153 1.94757V3.24757C3.79153 3.4559 2.69987 4.79757 2.5332 6.78924C2.51653 7.0309 2.71653 7.2309 2.94987 7.2309H17.0499C17.2915 7.2309 17.4915 7.02257 17.4665 6.78924C17.2999 4.79757 16.2082 3.4559 13.9582 3.24757Z" fill="#C4C4C4"/>
<path id="Vector_2" d="M16.6667 8.48059H3.33333C2.875 8.48059 2.5 8.85559 2.5 9.31392V14.4473C2.5 16.9473 3.75 18.6139 6.66667 18.6139H13.3333C16.25 18.6139 17.5 16.9473 17.5 14.4473V9.31392C17.5 8.85559 17.125 8.48059 16.6667 8.48059ZM7.675 15.4556C7.63333 15.4889 7.59167 15.5306 7.55 15.5556C7.5 15.5889 7.45 15.6139 7.4 15.6306C7.35 15.6556 7.3 15.6723 7.25 15.6806C7.19167 15.6889 7.14167 15.6973 7.08333 15.6973C6.975 15.6973 6.86667 15.6723 6.76667 15.6306C6.65833 15.5889 6.575 15.5306 6.49167 15.4556C6.34167 15.2973 6.25 15.0806 6.25 14.8639C6.25 14.6473 6.34167 14.4306 6.49167 14.2723C6.575 14.1973 6.65833 14.1389 6.76667 14.0973C6.91667 14.0306 7.08333 14.0139 7.25 14.0473C7.3 14.0556 7.35 14.0723 7.4 14.0973C7.45 14.1139 7.5 14.1389 7.55 14.1723C7.59167 14.2056 7.63333 14.2389 7.675 14.2723C7.825 14.4306 7.91667 14.6473 7.91667 14.8639C7.91667 15.0806 7.825 15.2973 7.675 15.4556ZM7.675 12.5389C7.51667 12.6889 7.3 12.7806 7.08333 12.7806C6.86667 12.7806 6.65 12.6889 6.49167 12.5389C6.34167 12.3806 6.25 12.1639 6.25 11.9473C6.25 11.7306 6.34167 11.5139 6.49167 11.3556C6.725 11.1223 7.09167 11.0473 7.4 11.1806C7.50833 11.2223 7.6 11.2806 7.675 11.3556C7.825 11.5139 7.91667 11.7306 7.91667 11.9473C7.91667 12.1639 7.825 12.3806 7.675 12.5389ZM10.5917 15.4556C10.4333 15.6056 10.2167 15.6973 10 15.6973C9.78333 15.6973 9.56667 15.6056 9.40833 15.4556C9.25833 15.2973 9.16667 15.0806 9.16667 14.8639C9.16667 14.6473 9.25833 14.4306 9.40833 14.2723C9.71667 13.9639 10.2833 13.9639 10.5917 14.2723C10.7417 14.4306 10.8333 14.6473 10.8333 14.8639C10.8333 15.0806 10.7417 15.2973 10.5917 15.4556ZM10.5917 12.5389C10.55 12.5723 10.5083 12.6056 10.4667 12.6389C10.4167 12.6723 10.3667 12.6973 10.3167 12.7139C10.2667 12.7389 10.2167 12.7556 10.1667 12.7639C10.1083 12.7723 10.0583 12.7806 10 12.7806C9.78333 12.7806 9.56667 12.6889 9.40833 12.5389C9.25833 12.3806 9.16667 12.1639 9.16667 11.9473C9.16667 11.7306 9.25833 11.5139 9.40833 11.3556C9.48333 11.2806 9.575 11.2223 9.68333 11.1806C9.99167 11.0473 10.3583 11.1223 10.5917 11.3556C10.7417 11.5139 10.8333 11.7306 10.8333 11.9473C10.8333 12.1639 10.7417 12.3806 10.5917 12.5389ZM13.5083 15.4556C13.35 15.6056 13.1333 15.6973 12.9167 15.6973C12.7 15.6973 12.4833 15.6056 12.325 15.4556C12.175 15.2973 12.0833 15.0806 12.0833 14.8639C12.0833 14.6473 12.175 14.4306 12.325 14.2723C12.6333 13.9639 13.2 13.9639 13.5083 14.2723C13.6583 14.4306 13.75 14.6473 13.75 14.8639C13.75 15.0806 13.6583 15.2973 13.5083 15.4556ZM13.5083 12.5389C13.4667 12.5723 13.425 12.6056 13.3833 12.6389C13.3333 12.6723 13.2833 12.6973 13.2333 12.7139C13.1833 12.7389 13.1333 12.7556 13.0833 12.7639C13.025 12.7723 12.9667 12.7806 12.9167 12.7806C12.7 12.7806 12.4833 12.6889 12.325 12.5389C12.175 12.3806 12.0833 12.1639 12.0833 11.9473C12.0833 11.7306 12.175 11.5139 12.325 11.3556C12.4083 11.2806 12.4917 11.2223 12.6 11.1806C12.75 11.1139 12.9167 11.0973 13.0833 11.1306C13.1333 11.1389 13.1833 11.1556 13.2333 11.1806C13.2833 11.1973 13.3333 11.2223 13.3833 11.2556C13.425 11.2889 13.4667 11.3223 13.5083 11.3556C13.6583 11.5139 13.75 11.7306 13.75 11.9473C13.75 12.1639 13.6583 12.3806 13.5083 12.5389Z" fill="#C4C4C4"/>
</g>
</svg>
