<svg width="20" height="21" viewBox="0 0 20 21" fill="none" xmlns="http://www.w3.org/2000/svg">
<g id="Icon/element">
<path id="Vector" d="M18.3333 8.08287V4.29954C18.3333 3.12454 17.8 2.64954 16.475 2.64954H13.1083C11.7833 2.64954 11.25 3.12454 11.25 4.29954V8.07454C11.25 9.25787 11.7833 9.72454 13.1083 9.72454H16.475C17.8 9.73287 18.3333 9.25787 18.3333 8.08287Z" fill="#6418C3"/>
<path id="Vector_2" d="M18.3333 17.4575V14.0909C18.3333 12.7659 17.8 12.2325 16.475 12.2325H13.1083C11.7833 12.2325 11.25 12.7659 11.25 14.0909V17.4575C11.25 18.7825 11.7833 19.3159 13.1083 19.3159H16.475C17.8 19.3159 18.3333 18.7825 18.3333 17.4575Z" fill="#6418C3"/>
<path id="Vector_3" d="M8.75033 8.08189V4.29856C8.75033 3.12356 8.21699 2.64856 6.89199 2.64856H3.52533C2.20033 2.64856 1.66699 3.12356 1.66699 4.29856V8.07356C1.66699 9.25689 2.20033 9.72356 3.52533 9.72356H6.89199C8.21699 9.73189 8.75033 9.25689 8.75033 8.08189Z" fill="#6418C3"/>
<path id="Vector_4" d="M8.75033 17.4575V14.0909C8.75033 12.7659 8.21699 12.2325 6.89199 12.2325H3.52533C2.20033 12.2325 1.66699 12.7659 1.66699 14.0909V17.4575C1.66699 18.7825 2.20033 19.3159 3.52533 19.3159H6.89199C8.21699 19.3159 8.75033 18.7825 8.75033 17.4575Z" fill="#6418C3"/>
</g>
</svg>
